<?xml version="1.0" encoding="UTF-8"?>
<svg width="100px" height="16px" viewBox="0 0 100 16" version="1.1" xmlns="http://www.w3.org/2000/svg" xmlns:xlink="http://www.w3.org/1999/xlink">
    <!-- Generator: Sketch 51.2 (57519) - http://www.bohemiancoding.com/sketch -->
    <title>arrow-prev</title>
    <desc>Created with Sketch.</desc>
    <defs></defs>
    <g id="Page-1" stroke="none" stroke-width="1" fill="none" fill-rule="evenodd">
        <g id="arrow-prev" fill="#FFFFFF" fill-rule="nonzero">
            <path d="M96.5838503,6.99999531 L91.2910632,1.70710564 C90.9005467,1.31658161 90.9005467,0.683417053 91.2910632,0.292893023 C91.6815796,-0.0976310076 92.3147319,-0.0976310076 92.7052484,0.292893023 L99.705108,7.29288834 C100.33506,7.92285278 99.8889024,8.99999397 98.9980154,8.99999397 L0.999980047,8.99999397 C0.447706369,8.99999397 9.37914706e-08,8.55227902 9.37914706e-08,7.99999464 C9.37914706e-08,7.44771026 0.447706369,6.99999531 0.999980047,6.99999531 L96.5838503,6.99999531 Z M95.833715,10.2525838 C96.2464895,9.88566605 96.8785492,9.92284675 97.2454599,10.3356292 C97.6123705,10.7484117 97.5751906,11.3804837 97.1624161,11.7474015 L92.6625063,15.7473988 C92.2497318,16.1143165 91.6176721,16.0771358 91.2507614,15.6643534 C90.8838508,15.2515709 90.9210307,14.6194989 91.3338052,14.2525811 L95.833715,10.2525838 Z" id="Combined-Shape" transform="translate(50.000000, 8.000000) scale(-1, 1) translate(-50.000000, -8.000000) "></path>
        </g>
    </g>
</svg>