<?xml version="1.0" encoding="UTF-8"?>
<svg width="100px" height="16px" viewBox="0 0 100 16" version="1.1" xmlns="http://www.w3.org/2000/svg" xmlns:xlink="http://www.w3.org/1999/xlink">
    <!-- Generator: Sketch 51.2 (57519) - http://www.bohemiancoding.com/sketch -->
    <title>arrow-next</title>
    <desc>Created with Sketch.</desc>
    <defs></defs>
    <g id="Page-1" stroke="none" stroke-width="1" fill="none" fill-rule="evenodd">
        <g id="arrow-next" fill="#FFFFFF" fill-rule="nonzero">
            <path d="M96.5838502,6.99999531 L91.2910631,1.70710564 C90.9005466,1.31658161 90.9005466,0.683417053 91.2910631,0.292893023 C91.6815795,-0.0976310076 92.3147318,-0.0976310076 92.7052483,0.292893023 L99.7051079,7.29288834 C100.33506,7.92285278 99.8889023,8.99999397 98.9980153,8.99999397 L0.999979953,8.99999397 C0.447706275,8.99999397 0,8.55227902 0,7.99999464 C0,7.44771026 0.447706275,6.99999531 0.999979953,6.99999531 L96.5838502,6.99999531 Z M95.8337149,10.2525838 C96.2464894,9.88566605 96.8785491,9.92284675 97.2454598,10.3356292 C97.6123704,10.7484117 97.5751905,11.3804837 97.162416,11.7474015 L92.6625062,15.7473988 C92.2497317,16.1143165 91.617672,16.0771358 91.2507613,15.6643534 C90.8838507,15.2515709 90.9210306,14.6194989 91.3338051,14.2525811 L95.8337149,10.2525838 Z" id="Combined-Shape"></path>
        </g>
    </g>
</svg>