<?xml version="1.0" encoding="UTF-8"?>
<svg width="329px" height="670px" viewBox="0 0 329 670" version="1.1" xmlns="http://www.w3.org/2000/svg" xmlns:xlink="http://www.w3.org/1999/xlink">
    <!-- Generator: Sketch 51.2 (57519) - http://www.bohemiancoding.com/sketch -->
    <title>Combined Shape</title>
    <desc>Created with Sketch.</desc>
    <defs></defs>
    <g id="Page-1" stroke="none" stroke-width="1" fill="none" fill-rule="evenodd">
        <g id="Phone" fill="#FEFEFE">
            <g id="Device">
                <path d="M328.980729,334.725289 C328.979995,433.383576 328.973573,532.041496 328.999997,630.699783 C329.001281,635.448783 328.617398,640.103281 326.938549,644.577765 C322.000359,657.73991 312.651727,665.919825 298.956512,668.989977 C296.122526,669.62544 293.138252,669.826557 290.222975,669.828942 C231.566394,669.874634 172.90963,669.861422 114.253049,669.861239 C89.2980416,669.861239 64.343034,669.84766 39.3880264,669.876836 C33.1866169,669.883993 27.2070599,668.920981 21.599459,666.180396 C10.571795,660.791161 3.72482968,652.057257 0.887356831,640.141449 C0.159592664,637.084876 0.0107735162,633.976923 0.0107735162,630.852455 C0.0111405178,577.761821 0.010039513,524.67137 0.00912200898,471.581102 C0.00765400259,392.128743 0.00581899461,312.676751 0.00526849221,233.224391 C0.00471798981,179.21662 0.006369497,125.208848 0.0071035002,71.2007097 C0.00728700099,60.4358189 0.0221505657,49.670928 0.000130469849,38.9062207 C-0.00904457008,34.4086161 0.463836988,29.9834943 2.0067117,25.7418734 C6.91077055,12.2586017 16.3693192,3.87224819 30.3977718,0.831456454 C33.2372631,0.215811275 36.2215366,0.0482750457 39.1391993,0.0458895353 C92.2300174,0.000748338819 145.320468,0.0126758907 198.411103,0.0119418875 C228.932057,0.0113913851 259.453011,0.0205664251 289.974148,1.43356246e-05 C296.116103,-0.00438968354 302.03327,1.00541521 307.572792,3.72581455 C318.522835,9.10312195 325.314383,17.8133544 328.196263,29.6374118 C328.973022,32.8244537 328.981647,36.0568203 328.981647,39.2981784 C328.98128,82.7860326 328.981463,126.273887 328.981463,169.761925 C328.981463,224.749774 328.981463,279.73744 328.980729,334.725289 Z M18.7171549,588.854723 C19.7183352,590.475769 21.2551544,590.653582 23.0007975,590.653215 C87.0967089,590.641104 151.19262,590.658169 215.288532,590.674134 C245.746178,590.681841 276.203824,590.695787 306.661654,590.706613 C307.273262,590.70698 307.88542,590.684593 308.496294,590.705145 C309.479492,590.738176 310.284693,590.422921 310.850426,589.588727 L310.850426,75.7864904 C310.238635,75.4194888 309.627026,75.0524872 309.015418,74.6854856 L20.9191644,74.6854856 C19.90624,75.1405676 19.3570221,76.0595396 18.7171549,76.8874952 L18.7171549,588.854723 Z" id="Combined-Shape"></path>
            </g>
        </g>
    </g>
</svg>