<?xml version="1.0" encoding="UTF-8"?>
<svg width="126px" height="32px" viewBox="0 0 126 32" version="1.1" xmlns="http://www.w3.org/2000/svg" xmlns:xlink="http://www.w3.org/1999/xlink">
    <!-- Generator: Sketch 51.3 (57544) - http://www.bohemiancoding.com/sketch -->
    <title>Logo #1</title>
    <desc>Created with Sketch.</desc>
    <defs>
        <polygon id="path-1" points="0 24.8171773 91.4334357 24.8171773 91.4334357 0.22549929 0 0.22549929"></polygon>
    </defs>
    <g id="Page-1" stroke="none" stroke-width="1" fill="none" fill-rule="evenodd">
        <g id="Logo-#1">
            <g id="Logo-icon">
                <path d="M8.65015316,19.77248 L3.21052632e-05,23.72704 L3.21052632e-05,31.63616 L7.93484789,31.63616 L15.8699847,31.63616 C20.2520321,31.63616 23.8048005,28.09504 23.8048005,23.72704 L8.65015316,19.77248 Z" id="Fill-1" fill="#0063FF"></path>
                <path d="M15.8699205,-1.42108547e-14 L13.1191416,8.30304 L15.8699205,15.81792 C20.2519679,15.81792 23.8047363,12.27712 23.8047363,7.9088 C23.8047363,3.54112 20.2519679,-1.42108547e-14 15.8699205,-1.42108547e-14" id="Fill-3" fill="#00C8FF"></path>
                <polygon id="Fill-5" fill="#00AFFF" points="7.93500842 -1.42108547e-14 5.30879789 7.90912 7.93500842 15.81792 11.9022558 18.50208 15.8698242 15.81792 15.8698242 -1.42108547e-14"></polygon>
                <path d="M15.8699205,15.817952 L7.93510474,15.817952 L4.97467842,19.772512 L7.93510474,23.727072 L15.8699205,23.727072 L23.8047363,23.727072 C23.8047363,19.359072 20.2519679,15.817952 15.8699205,15.817952" id="Fill-7" fill="#0095FF"></path>
                <polygon id="Fill-9" fill="#007CFF" points="0 23.726912 7.93481579 23.726912 7.93481579 -0.000128 0 -0.000128"></polygon>
            </g>
            <g id="Text" transform="translate(33.710526, 6.154930)">
                <g id="Group-21">
                    <polygon id="Fill-1" fill="#202326" points="12.5912196 14.6575151 15.308469 14.6575151 15.308469 0.31134834 12.5912196 0.31134834"></polygon>
                    <g id="Group-20" transform="translate(0.000000, 0.080947)">
                        <path d="M17.2218208,10.291806 L17.2218208,4.55352309 L19.9387638,4.55352309 L19.9387638,10.3301041 C19.9387638,11.7266065 20.5706537,12.3770616 21.7755962,12.3770616 C22.9811515,12.3770616 23.6124286,11.7266065 23.6124286,10.3301041 L23.6124286,4.55352309 L26.3287587,4.55352309 L26.3287587,10.291806 C26.3287587,13.5437753 24.703067,14.8060811 21.7755962,14.8060811 C18.8484318,14.8060811 17.2218208,13.5437753 17.2218208,10.291806" id="Fill-2" fill="#202326"></path>
                        <path d="M30.3483695,8.39813278 L34.9021448,8.39813278 C34.7106166,7.26941079 33.8878113,6.50436769 32.6255636,6.50436769 C31.3817026,6.50436769 30.5782033,7.25041493 30.3483695,8.39813278 Z M30.3100638,10.3491919 C30.501592,11.726392 31.3817026,12.4724392 32.7404805,12.4724392 C33.5623665,12.4724392 34.3474791,12.1090667 34.672311,11.3823218 L37.4082535,11.3823218 C36.8149757,13.4096707 34.9778368,14.8061731 32.6638692,14.8061731 C29.6980928,14.8061731 27.6124269,12.6256317 27.6124269,9.54585063 C27.6124269,6.58096391 29.6781738,4.32382632 32.6439503,4.32382632 C35.6097268,4.32382632 37.6184749,6.58096391 37.6184749,9.54585063 C37.6184749,9.98581936 37.5801693,10.3491919 37.5801693,10.3491919 L30.3100638,10.3491919 Z" id="Fill-4" fill="#202326"></path>
                        <path d="M59.1901318,6.71497667 C57.6793571,6.71497667 56.7226352,7.93929075 56.7226352,9.56496905 C56.7226352,11.1909537 57.6793571,12.4152678 59.1901318,12.4152678 C60.7021323,12.4152678 61.6588542,11.1909537 61.6588542,9.56496905 C61.6588542,7.93929075 60.7021323,6.71497667 59.1901318,6.71497667 Z M64.2982665,4.55343117 L64.2982665,14.5765069 L61.7921578,14.5765069 L61.7921578,13.3524992 C61.1608808,14.2707348 60.0319367,14.8062956 58.6164664,14.8062956 C55.7079952,14.8062956 54.0053858,12.4725618 54.0053858,9.56496905 C54.0053858,6.65768269 55.7079952,4.32364249 58.6164664,4.32364249 C60.0319367,4.32364249 61.1608808,4.85950969 61.7921578,5.77743886 L61.7921578,4.55343117 L64.2982665,4.55343117 Z" id="Fill-6" fill="#202326"></path>
                        <path d="M71.41803,12.4152678 C72.9297241,12.4152678 73.8855266,11.1909537 73.8855266,9.56496905 C73.8855266,7.93929075 72.9297241,6.71497667 71.41803,6.71497667 C69.9060295,6.71497667 68.9493076,7.93929075 68.9493076,9.56496905 C68.9493076,11.1909537 69.9060295,12.4152678 71.41803,12.4152678 M71.9916954,4.32364249 C74.9001666,4.32364249 76.602776,6.65768269 76.602776,9.56496905 C76.602776,12.4725618 74.9001666,14.8062956 71.9916954,14.8062956 C70.5762251,14.8062956 69.447281,14.2707348 68.816004,13.3524992 L68.816004,14.5765069 L66.3098953,14.5765069 L66.3098953,0.230033786 L69.0259189,0.230033786 L69.0259189,5.6245528 C69.5428919,4.93579953 70.5762251,4.32364249 71.9916954,4.32364249" id="Fill-8" fill="#202326"></path>
                        <path d="M80.0867513,8.39813278 L84.6396073,8.39813278 C84.4480791,7.26941079 83.6261931,6.50436769 82.3630261,6.50436769 C81.1191651,6.50436769 80.3156658,7.25041493 80.0867513,8.39813278 Z M80.0484456,10.3491919 C80.2390545,11.726392 81.1191651,12.4724392 82.477943,12.4724392 C83.3007483,12.4724392 84.0849415,12.1090667 84.4097734,11.3823218 L87.1466353,11.3823218 C86.5533575,13.4096707 84.7162186,14.8061731 82.4013317,14.8061731 C79.4355553,14.8061731 77.3508087,12.6256317 77.3508087,9.54585063 C77.3508087,6.58096391 79.4165557,4.32382632 82.3823321,4.32382632 C85.3481086,4.32382632 87.3568567,6.58096391 87.3568567,9.54585063 C87.3568567,9.98581936 87.3185511,10.3491919 87.3185511,10.3491919 L80.0484456,10.3491919 Z" id="Fill-10" fill="#202326"></path>
                        <mask id="mask-2" fill="white">
                            <use xlink:href="#path-1"></use>
                        </mask>
                        <g id="Clip-13"></g>
                        <polygon id="Fill-12" fill="#202326" mask="url(#mask-2)" points="88.7171056 14.5765682 91.4331292 14.5765682 91.4331292 0.230095063 88.7171056 0.230095063"></polygon>
                        <path d="M2.87185101,8.65696675 L2.87185101,11.9325278 L6.24918335,11.9325278 C7.50285058,11.9325278 8.06916128,11.3059706 8.06916128,10.2949004 C8.06916128,9.32427307 7.50285058,8.65696675 6.24918335,8.65696675 L2.87185101,8.65696675 Z M2.87185101,2.87425806 L2.87185101,5.98804785 L6.04662308,5.98804785 C7.17955092,5.98804785 7.8672139,5.46229135 7.8672139,4.43130615 C7.8672139,3.58200719 7.34104753,2.87425806 6.04662308,2.87425806 L2.87185101,2.87425806 Z M0.00015322259,14.5812253 L0.00015322259,0.225254182 L6.06715491,0.225254182 C9.36358572,0.225254182 10.8397322,1.9845163 10.8397322,4.1684279 C10.8397322,5.66450539 10.0714741,6.79690399 8.83772579,7.34257551 C10.1523756,7.8481106 11.041986,8.98050921 11.041986,10.5173359 C11.041986,12.9840408 9.44448725,14.5812253 6.33008488,14.5812253 L0.00015322259,14.5812253 Z" id="Fill-14" fill="#202326" mask="url(#mask-2)"></path>
                        <polygon id="Fill-15" fill="#202326" mask="url(#mask-2)" points="52.7990643 14.5813478 43.4757762 14.5813478 43.4757762 0.225376736 46.4286819 0.225376736 46.4286819 11.8719861 52.7990643 11.8719861"></polygon>
                        <polygon id="Fill-16" fill="#202326" mask="url(#mask-2)" points="3.28515363 24.7100038 6.12890361e-05 24.7100038 6.12890361e-05 19.2744292 0.559017299 19.2744292 0.559017299 24.1817962 3.28515363 24.1817962"></polygon>
                        <path d="M7.30274188,19.9557986 L6.09289631,22.9185406 L8.52024858,22.9185406 L7.31775769,19.9557986 L7.30274188,19.9557986 Z M4.77640781,24.7099732 L7.01223185,19.2743986 L7.61654174,19.2743986 L9.86033336,24.7099732 L9.23978187,24.7099732 L8.72648619,23.4390886 L5.89370694,23.4390886 L5.37336302,24.7099732 L4.77640781,24.7099732 Z" id="Fill-17" fill="#202326" mask="url(#mask-2)"></path>
                        <path d="M12.5987888,22.2141924 L12.5987888,24.1894559 L14.1227407,24.1894559 C14.8962083,24.1894559 15.4015364,23.8983902 15.4015364,23.2016709 C15.4015364,22.5279305 14.8962083,22.2141924 14.1300954,22.2141924 L12.5987888,22.2141924 Z M12.5987888,19.7949772 L12.5987888,21.6936444 L14.0767739,21.6936444 C14.7963072,21.6936444 15.2792648,21.4485365 15.2792648,20.7441576 C15.2792648,20.1163749 14.8652573,19.7949772 14.0767739,19.7949772 L12.5987888,19.7949772 Z M12.0401392,24.7100038 L12.0401392,19.2744292 L14.0534841,19.2744292 C15.3016353,19.2744292 15.8379143,19.879233 15.8379143,20.7211787 C15.8379143,21.3030037 15.5241145,21.7702407 14.9878354,21.9540716 C15.5774359,22.1222769 15.9604924,22.5895139 15.9604924,23.2246498 C15.9604924,24.1894559 15.2866195,24.7100038 14.1077249,24.7100038 L12.0401392,24.7100038 Z" id="Fill-18" fill="#202326" mask="url(#mask-2)"></path>
                        <path d="M21.6087061,23.2935558 C21.6087061,21.5710598 18.3849028,22.8722765 18.3849028,20.690816 C18.3849028,19.9098409 19.0287441,19.1595042 20.2462508,19.1595042 C21.4551771,19.1595042 22.0993249,19.9251601 22.1216954,20.9202983 L21.5786745,20.9202983 C21.5553847,20.170268 21.0571048,19.664733 20.2536055,19.664733 C19.4341711,19.664733 18.9438588,20.0630333 18.9438588,20.6678371 C18.9438588,22.2524599 22.1759361,21.0658311 22.1759361,23.255564 C22.1759361,24.1970848 21.3565017,24.8172079 20.1386886,24.8172079 C18.7373148,24.8172079 18.1477142,23.9979347 18.1094086,23.0637671 L18.6607035,23.0637671 C18.722299,23.8833467 19.3042384,24.3116728 20.1537044,24.3116728 C21.042089,24.3116728 21.6087061,23.9596365 21.6087061,23.2935558" id="Fill-19" fill="#202326" mask="url(#mask-2)"></path>
                    </g>
                </g>
            </g>
        </g>
    </g>
</svg>