<?xml version="1.0" encoding="UTF-8"?>
<svg width="27px" height="35px" viewBox="0 0 27 35" version="1.1" xmlns="http://www.w3.org/2000/svg" xmlns:xlink="http://www.w3.org/1999/xlink">
    <!-- Generator: Sketch 51.3 (57544) - http://www.bohemiancoding.com/sketch -->
    <title>BlueLabelLabs-logo-white</title>
    <desc>Created with Sketch.</desc>
    <defs></defs>
    <g id="Page-1" stroke="none" stroke-width="1" fill="none" fill-rule="evenodd">
        <g id="BlueLabelLabs-logo-white" fill="#FFFFFF" fill-rule="nonzero">
            <path d="M9.699516,26.2135859 L3.6e-05,26.2135859 L3.6e-05,34.9515656 L8.897436,34.9515656 L17.795196,34.9515656 C22.708836,34.9515656 26.692596,31.0393434 26.692596,26.2135859 L9.699516,26.2135859 Z" id="Fill-1" opacity="0.800000012"></path>
            <path d="M17.795124,9.17318181 L17.795124,17.475606 C22.708764,17.475606 26.692524,13.5637374 26.692524,8.73762626 C26.692524,3.91222223 22.708764,-1.42108547e-14 17.795124,-1.42108547e-14 L17.795124,9.17318181 Z" id="Fill-3" opacity="0.349999994"></path>
            <polygon id="Fill-5" opacity="0.449999988" points="8.897616 -1.42108547e-14 8.897616 8.7379798 8.897616 17.475606 13.346136 17.475606 17.795016 17.475606 17.795016 -1.42108547e-14"></polygon>
            <path d="M8.897724,17.4756414 L8.897724,21.8446314 L8.897724,26.2136213 L17.795124,26.2136213 L26.692524,26.2136213 C26.692524,21.3878636 22.708764,17.4756414 17.795124,17.4756414 L8.897724,17.4756414 Z" id="Fill-7" opacity="0.550000012"></path>
            <polygon id="Fill-9" opacity="0.649999976" points="0 30.5825758 8.8974 30.5825758 8.8974 -0.000141414141 0 -0.000141414141"></polygon>
        </g>
    </g>
</svg>