<?xml version="1.0" encoding="UTF-8"?>
<svg width="16px" height="12px" viewBox="0 0 16 12" version="1.1" xmlns="http://www.w3.org/2000/svg" xmlns:xlink="http://www.w3.org/1999/xlink">
    <!-- Generator: Sketch 51.2 (57519) - http://www.bohemiancoding.com/sketch -->
    <title>Rectangle 12</title>
    <desc>Created with Sketch.</desc>
    <defs></defs>
    <g id="Page-1" stroke="none" stroke-width="1" fill="none" fill-rule="evenodd">
        <g id="Hello-Sitter" transform="translate(-687.000000, -13190.000000)" fill="#FFFFFF" fill-rule="nonzero">
            <g id="Group-2" transform="translate(680.000000, 13181.000000)">
                <path d="M9.3999998,13.3313858 L8.36568531,14.3657003 C8.0532659,14.6781197 7.54673396,14.6781197 7.23431456,14.3657003 C6.92189515,14.0532809 6.92189515,13.546749 7.23431456,13.2343296 L8.83431442,11.6343297 C9.14673383,11.3219103 9.65326577,11.3219103 9.96568518,11.6343297 L12.7119082,14.3805527 L20.9704984,9.12508616 C21.2868368,8.92377992 21.7005482,8.96919394 21.9656842,9.23432991 L22.7656841,10.0343298 C23.0877462,10.3563919 23.076326,10.8819699 22.7405784,11.1897385 L13.1405792,19.9897378 C12.8071834,20.2953506 12.2869304,20.2640397 11.9925943,19.9206476 L9.34008993,16.8260591 C9.05255223,16.4905985 9.09140146,15.9855585 9.4268621,15.6980208 C9.76232275,15.4104831 10.2673627,15.4493324 10.5549004,15.784793 L12.6691281,18.251392 L19.6156123,11.8837815 L13.0294999,16.074944 C12.7131615,16.2762502 12.2994501,16.2308362 12.0343142,15.9657002 L9.3999998,13.3313858 Z" id="Rectangle-12"></path>
            </g>
        </g>
    </g>
</svg>