<?xml version="1.0" encoding="UTF-8"?>
<svg width="69px" height="58px" viewBox="0 0 69 58" version="1.1" xmlns="http://www.w3.org/2000/svg" xmlns:xlink="http://www.w3.org/1999/xlink">
    <!-- Generator: Sketch 51.3 (57544) - http://www.bohemiancoding.com/sketch -->
    <title>“</title>
    <desc>Created with Sketch.</desc>
    <defs></defs>
    <g id="Page-1" stroke="none" stroke-width="1" fill="none" fill-rule="evenodd">
        <g id="Custom-Preset" transform="translate(-378.000000, -1005.000000)" fill="#E8EBF0">
            <g id="Group-9" transform="translate(302.000000, 945.000000)">
                <g id="Group-6" transform="translate(67.000000, 0.000000)">
                    <g id="Group">
                        <path d="M77.4900005,104.6 C77.4900005,108.266685 76.1333474,111.38332 73.4200005,113.95 C70.7066536,116.51668 67.2966877,117.8 63.1900005,117.8 C58.6433111,117.8 54.8300159,116.186683 51.7500005,112.96 C48.6699851,109.733317 47.1300005,105.113363 47.1300005,99.1 C47.1300005,87.2199406 50.1733034,78.0166993 56.2600005,71.49 C62.3466976,64.9633007 69.0566305,61.333337 76.3900005,60.6 L76.3900005,70.94 C71.6966437,71.9666718 67.8100159,74.6066454 64.7300005,78.86 C61.6499851,83.1133546 60.0366679,87.5866432 59.8900005,92.28 C60.9166723,91.546663 62.3833243,91.18 64.2900005,91.18 C68.1033529,91.18 71.2566547,92.3899879 73.7500005,94.81 C76.2433463,97.2300121 77.4900005,100.493313 77.4900005,104.6 Z M39.8700005,104.6 C39.8700005,108.266685 38.5133474,111.38332 35.8000005,113.95 C33.0866536,116.51668 29.6766877,117.8 25.5700005,117.8 C21.0233111,117.8 17.2100159,116.186683 14.1300005,112.96 C11.0499851,109.733317 9.5100005,105.113363 9.5100005,99.1 C9.5100005,87.2199406 12.5533034,78.0166993 18.6400005,71.49 C24.7266976,64.9633007 31.4366305,61.333337 38.7700005,60.6 L38.7700005,70.94 C34.0766437,71.9666718 30.1900159,74.6066454 27.1100005,78.86 C24.0299851,83.1133546 22.4166679,87.5866432 22.2700005,92.28 C23.2966723,91.546663 24.7633243,91.18 26.6700005,91.18 C30.4833529,91.18 33.6366547,92.3899879 36.1300005,94.81 C38.6233463,97.2300121 39.8700005,100.493313 39.8700005,104.6 Z" id="“"></path>
                    </g>
                </g>
            </g>
        </g>
    </g>
</svg>